<?xml version="1.0" encoding="UTF-8"?> <!-- Generator: Adobe Illustrator 22.1.0, SVG Export Plug-In . SVG Version: 6.00 Build 0) --> <svg xmlns="http://www.w3.org/2000/svg" xmlns:xlink="http://www.w3.org/1999/xlink" id="Слой_1" x="0px" y="0px" viewBox="0 0 300 113.1" style="enable-background:new 0 0 300 113.1;" xml:space="preserve"> <style type="text/css"> .st0{fill:#231F20;} </style> <g> <g> <path class="st0" d="M58.7,22.5L58.7,22.5L58.7,22.5c0,1.9,0.8,3.6,2,4.8c1.2,1.2,2.9,2,4.8,2c1.9,0,3.6-0.8,4.8-2 c1.2-1.2,2-2.9,2-4.8c0-1.9-0.8-3.5-2-4.8c-1.2-1.2-2.9-2-4.8-2c-1.9,0-3.6,0.8-4.8,2C59.5,19,58.7,20.7,58.7,22.5 M49.2,35 c-0.8-0.8-1.4-1.8-1.9-2.8c-0.4-1-0.7-2.2-0.7-3.3V16.3l-8.3,4.8c0.2,0.1,0.3,0.3,0.5,0.4c1.2,1.2,1.9,2.8,1.9,4.6 c0,1.8-0.7,3.4-1.9,4.6c-1.2,1.2-2.8,1.9-4.6,1.9h-4.7h-1h-2.3V12.5h3.3v16.8h4.7c0.9,0,1.7-0.4,2.3-0.9c0.6-0.6,0.9-1.4,0.9-2.3 s-0.4-1.7-0.9-2.3c-0.6-0.6-1.4-0.9-2.3-0.9v-3.3h0l12.4-7.2v0H50v16.3c0,0.7,0.1,1.4,0.4,2c0.3,0.6,0.7,1.2,1.2,1.7L49.2,35z M96.3,22.6L96.3,22.6c0-1.9-0.8-3.6-2-4.8c-1.2-1.2-2.9-2-4.8-2c-1.9,0-3.6,0.8-4.8,2c-1.2,1.2-2,2.9-2,4.8c0,1.9,0.8,3.6,2,4.8 c1.2,1.2,2.9,2,4.8,2c1.9,0,3.6-0.8,4.8-2C95.5,26.1,96.3,24.5,96.3,22.6 M98.8,32.6c-0.8-0.8-1.5-1.8-1.9-2.8 c0-0.1-0.1-0.2-0.1-0.3c-0.1,0.1-0.1,0.1-0.2,0.2c-1.8,1.8-4.4,2.9-7.1,2.9c-2.8,0-5.3-1.1-7.1-2.9c-1.8-1.8-3-4.3-3-7.1 c0-2.8,1.1-5.3,3-7.1c1.8-1.8,4.4-2.9,7.1-2.9c2.6,0,5,1,6.8,2.6v-2.6h3.3v10v0v0.1v3.9c0,0.7,0.1,1.4,0.4,2 c0.3,0.6,0.7,1.2,1.2,1.7L98.8,32.6z M135.4,32.6c-2.8,0-5.3-1.1-7.1-2.9c-1.8-1.8-3-4.3-3-7.1c0-2.8,1.1-5.3,3-7.1 c1.8-1.8,4.4-2.9,7.1-2.9c2.8,0,5.3,1.1,7.1,2.9c1.8,1.8,3,4.3,3,7.1c0,2.8-1.1,5.3-3,7.1C140.7,31.5,138.2,32.6,135.4,32.6 M135.4,15.8c-1.9,0-3.6,0.8-4.8,2c-1.2,1.2-2,2.9-2,4.8c0,1.9,0.8,3.6,2,4.8c1.2,1.2,2.9,2,4.8,2s3.6-0.8,4.8-2 c1.2-1.2,2-2.9,2-4.8c0-1.9-0.8-3.5-2-4.8C138.9,16.6,137.2,15.8,135.4,15.8 M5.2,3.7H12v0l0.1,0h0.3v0c2.6,0.1,5,1.2,6.8,2.9 c1.8,1.8,3,4.3,3,7.1s-1.1,5.3-3,7.1c-1.7,1.7-4.1,2.8-6.8,2.9v0H12h0H5.2v8.8H1.9v-29h1.7H5.2z M12.1,7H5.2v13.5H12 c1.9,0,3.6-0.8,4.8-2c1.2-1.2,2-2.9,2-4.8c0-1.9-0.8-3.6-2-4.8C15.6,7.7,13.9,7,12.1,7 M149.3,9.5c0-1.8,0.7-3.3,1.9-4.5 c1.2-1.1,2.7-1.9,4.5-1.9c1.8,0,3.4,0.7,4.5,1.9c1.2,1.1,1.9,2.7,1.9,4.5c0,1.2-0.3,2.3-0.9,3.2c2.1,0.4,3.9,1.4,5.4,2.8 c1.8,1.8,3,4.3,3,7.1c0,2.8-1.1,5.3-3,7.1c-1.8,1.8-4.4,2.9-7.1,2.9s-5.3-1.1-7.1-2.9c-1.8-1.8-3-4.3-3-7.1V9.5z M159.4,15.8h-3.7 h-0.1h-3v6.7c0,1.9,0.8,3.6,2,4.8c1.2,1.2,2.9,2,4.8,2c1.9,0,3.6-0.8,4.8-2c1.2-1.2,2-2.9,2-4.8c0-1.9-0.8-3.5-2-4.8 C163,16.6,161.3,15.8,159.4,15.8 M152.6,12.5h3.1c0.8,0,1.6-0.3,2.1-0.9c0.5-0.5,0.9-1.3,0.9-2.1c0-0.8-0.3-1.6-0.9-2.1 c-0.6-0.5-1.3-0.9-2.2-0.9c-0.8,0-1.6,0.3-2.2,0.9c-0.6,0.5-0.9,1.3-0.9,2.1V12.5z M241.6,32.6c-2.8,0-5.3-1.1-7.1-2.9 c-1.8-1.8-3-4.3-3-7.1s1.1-5.3,3-7.1s4.4-2.9,7.1-2.9c2.8,0,5.3,1.1,7.1,2.9c1.8,1.8,3,4.3,3,7.1s-1.1,5.3-3,7.1 C246.9,31.5,244.4,32.6,241.6,32.6 M241.6,15.8c-1.9,0-3.6,0.8-4.8,2c-1.2,1.2-2,2.9-2,4.8c0,1.9,0.8,3.6,2,4.8 c1.2,1.2,2.9,2,4.8,2c1.9,0,3.6-0.8,4.8-2c1.2-1.2,2-2.9,2-4.8c0-1.9-0.8-3.6-2-4.8C245.2,16.5,243.5,15.8,241.6,15.8 M207.9,22.6 L207.9,22.6c0-1.9-0.8-3.6-2-4.8c-1.2-1.2-2.9-2-4.8-2s-3.6,0.8-4.8,2c-1.2,1.2-2,2.9-2,4.8c0,1.9,0.8,3.6,2,4.8 c1.2,1.2,2.9,2,4.8,2s3.6-0.8,4.8-2C207.1,26.1,207.9,24.4,207.9,22.6 M218,29.3c1.9,0,3.6-0.8,4.8-2c1.2-1.2,2-2.9,2-4.8 c0-1.9-0.8-3.6-2-4.8c-1.2-1.2-2.9-2-4.8-2c-1.9,0-3.6,0.8-4.8,2c-1.2,1.2-2,2.9-2,4.8c0,1.9,0.8,3.6,2,4.8 C214.5,28.5,216.1,29.3,218,29.3 M218,12.5c2.8,0,5.3,1.1,7.1,2.9c1.8,1.8,3,4.3,3,7.1s-1.1,5.3-3,7.1c-1.8,1.8-4.4,2.9-7.1,2.9 c-2.6,0-5-1-6.8-2.6v14.2h-3.3V30c-1.8,1.6-4.2,2.6-6.8,2.6c-2.8,0-5.3-1.1-7.1-2.9c-1.8-1.8-3-4.3-3-7.1s1.1-5.3,3-7.1 c1.8-1.8,4.4-2.9,7.1-2.9c2.8,0,5.3,1.1,7.1,2.9c0.5,0.5,0.9,1,1.3,1.6c0.4-0.6,0.8-1.1,1.3-1.6C212.7,13.6,215.2,12.5,218,12.5 M272.3,32.6c-0.8-0.8-1.4-1.8-1.9-2.8c-0.4-1-0.7-2.2-0.7-3.3v-2.3h-10.3v8.4h-3.3V12.5h3.3v8.4h10.3v-8.4h3.3v14h0 c0,0.7,0.1,1.4,0.4,2c0.3,0.6,0.7,1.2,1.2,1.7L272.3,32.6z M288,29.3c1.9,0,3.6-0.8,4.8-2c1.2-1.2,2-2.9,2-4.8 c0-1.9-0.8-3.6-2-4.8c-1.2-1.2-2.9-2-4.8-2c-1.9,0-3.6,0.8-4.8,2c-1.2,1.2-2,2.9-2,4.8c0,1.9,0.8,3.6,2,4.8 C284.4,28.5,286.1,29.3,288,29.3 M294.8,15.1v-2.3c0-2.6-1.1-5-2.8-6.7c-1.7-1.7-4.1-2.8-6.7-2.8c-0.4,0-0.9,0-1.2,0.1 c-0.4,0.1-0.8,0.1-1.2,0.2L282,0.4c0.5-0.1,1.1-0.2,1.6-0.3c0.6-0.1,1.1-0.1,1.7-0.1c3.5,0,6.7,1.4,9,3.7c2.3,2.3,3.7,5.5,3.7,9 v9.2h0c0,0.2,0,0.4,0,0.6c0,2.8-1.1,5.3-3,7.1c-1.8,1.8-4.4,2.9-7.1,2.9c-2.8,0-5.3-1.1-7.1-2.9c-1.8-1.8-3-4.3-3-7.1 s1.1-5.3,3-7.1c1.8-1.8,4.4-2.9,7.1-2.9C290.6,12.5,293,13.5,294.8,15.1 M109.2,12.5v8.4h2.7l8.4-8.4l2.4,2.3l-7.1,7V23 c0.1,1.7,0.8,3.2,2,4.3c1.2,1.2,2.9,2,4.8,2v3.3c-2.8,0-5.3-1.1-7.1-2.9c-1.5-1.4-2.5-3.3-2.8-5.4h-3.2v8.4h-3.3V12.5H109.2z M65.5,12.5c2.8,0,5.3,1.1,7.1,2.9c1.8,1.8,3,4.3,3,7.1c0,2.8-1.1,5.3-3,7.1c-1.8,1.8-4.4,2.9-7.1,2.9c-2.8,0-5.3-1.1-7.1-2.9 c-1.8-1.8-3-4.3-3-7.1v0V15v-0.1v-0.1h0c0-2,0.6-3.9,1.5-5.5c1-1.7,2.4-3.1,4.2-4.2v0l7.8-4.5l1.7,2.9L62.7,8 c-1.2,0.7-2.3,1.7-3,3c-0.7,1.2-1.1,2.5-1.1,4v0.2C60.5,13.5,62.9,12.5,65.5,12.5"></path> <path class="st0" d="M132.3,100.5c2.4,2.3,5.1,4.2,8.1,5.4c2.2,0.9,4.5,1.5,6.9,1.8l0-9.7h-17.2 C130.7,98.9,131.5,99.7,132.3,100.5 M163.3,68.1c-1.2-1.2-3.2-1.2-4.4,0c-1.2,1.2-1.2,3.2,0,4.4c1.2,1.2,3.2,1.2,4.4,0 C164.5,71.3,164.5,69.3,163.3,68.1 M147.2,58.2c-5.5,0.6-10.8,3-15,7.1c-3.5,3.5-5.8,7.8-6.8,12.3l21.7,0V58.2z M152.5,77.7 l21.9,0c-0.4-1.9-1-3.7-1.8-5.4c-1.2-2.6-2.9-4.9-5-7c-4.2-4.2-9.6-6.6-15.1-7.2V77.7z M124.9,82.9L124.9,82.9 c0,3.3,0.7,6.7,2,9.8h25.6l0,20.4l-2.7,0c-4,0-7.9-0.8-11.6-2.3c-3.6-1.5-7-3.7-9.8-6.5c-5.9-5.9-8.9-13.6-8.9-21.3 s3-15.5,8.9-21.4c5.9-5.9,13.7-8.8,21.4-8.8c7.8,0,15.5,2.9,21.4,8.8c2.5,2.5,4.5,5.4,6,8.5c1.5,3.2,2.4,6.5,2.8,10l0.3,2.9 L124.9,82.9z"></path> </g> </g> </svg> 